<mxfile host="app.diagrams.net" agent="Mozilla/5.0 (Macintosh; Intel Mac OS X 10.15; rv:131.0) Gecko/20100101 Firefox/131.0" version="24.7.17">
  <diagram name="Page-1" id="FZoBvCED_xPUK12oSlUK">
    <mxGraphModel dx="4735" dy="3200" grid="1" gridSize="10" guides="1" tooltips="1" connect="1" arrows="1" fold="1" page="1" pageScale="1" pageWidth="850" pageHeight="1100" math="0" shadow="0">
      <root>
        <mxCell id="0" />
        <mxCell id="1" parent="0" />
        <mxCell id="ExRPVJ6VkvOgUD8HxoQR-1" style="edgeStyle=orthogonalEdgeStyle;rounded=0;orthogonalLoop=1;jettySize=auto;html=1;exitX=0.5;exitY=1;exitDx=0;exitDy=0;entryX=0.5;entryY=0;entryDx=0;entryDy=0;" edge="1" parent="1" source="ExRPVJ6VkvOgUD8HxoQR-2" target="ExRPVJ6VkvOgUD8HxoQR-6">
          <mxGeometry relative="1" as="geometry" />
        </mxCell>
        <mxCell id="ExRPVJ6VkvOgUD8HxoQR-2" value="Video starts" style="rounded=1;whiteSpace=wrap;html=1;" vertex="1" parent="1">
          <mxGeometry x="720" y="80" width="120" height="30" as="geometry" />
        </mxCell>
        <mxCell id="ExRPVJ6VkvOgUD8HxoQR-3" style="edgeStyle=orthogonalEdgeStyle;rounded=0;orthogonalLoop=1;jettySize=auto;html=1;exitX=1;exitY=0.5;exitDx=0;exitDy=0;entryX=0;entryY=0.5;entryDx=0;entryDy=0;" edge="1" parent="1" source="ExRPVJ6VkvOgUD8HxoQR-4" target="ExRPVJ6VkvOgUD8HxoQR-22">
          <mxGeometry relative="1" as="geometry" />
        </mxCell>
        <mxCell id="ExRPVJ6VkvOgUD8HxoQR-4" value="Countdown" style="rounded=1;whiteSpace=wrap;html=1;" vertex="1" parent="1">
          <mxGeometry x="320" y="80" width="120" height="30" as="geometry" />
        </mxCell>
        <mxCell id="ExRPVJ6VkvOgUD8HxoQR-5" style="edgeStyle=orthogonalEdgeStyle;rounded=0;orthogonalLoop=1;jettySize=auto;html=1;exitX=1;exitY=0.5;exitDx=0;exitDy=0;entryX=0;entryY=0.5;entryDx=0;entryDy=0;" edge="1" parent="1" source="ExRPVJ6VkvOgUD8HxoQR-6" target="ExRPVJ6VkvOgUD8HxoQR-9">
          <mxGeometry relative="1" as="geometry" />
        </mxCell>
        <mxCell id="ExRPVJ6VkvOgUD8HxoQR-6" value="Video section starts" style="rounded=1;whiteSpace=wrap;html=1;" vertex="1" parent="1">
          <mxGeometry x="720" y="160" width="120" height="30" as="geometry" />
        </mxCell>
        <mxCell id="ExRPVJ6VkvOgUD8HxoQR-7" style="edgeStyle=orthogonalEdgeStyle;rounded=0;orthogonalLoop=1;jettySize=auto;html=1;exitX=1;exitY=0.5;exitDx=0;exitDy=0;" edge="1" parent="1" source="ExRPVJ6VkvOgUD8HxoQR-9" target="ExRPVJ6VkvOgUD8HxoQR-24">
          <mxGeometry relative="1" as="geometry" />
        </mxCell>
        <mxCell id="ExRPVJ6VkvOgUD8HxoQR-8" value="Cut" style="edgeLabel;html=1;align=center;verticalAlign=middle;resizable=0;points=[];" vertex="1" connectable="0" parent="ExRPVJ6VkvOgUD8HxoQR-7">
          <mxGeometry x="-0.0222" y="-1" relative="1" as="geometry">
            <mxPoint as="offset" />
          </mxGeometry>
        </mxCell>
        <mxCell id="ExRPVJ6VkvOgUD8HxoQR-9" value="Video section ends" style="rounded=1;whiteSpace=wrap;html=1;" vertex="1" parent="1">
          <mxGeometry x="920" y="160" width="120" height="30" as="geometry" />
        </mxCell>
        <mxCell id="ExRPVJ6VkvOgUD8HxoQR-10" style="edgeStyle=orthogonalEdgeStyle;rounded=0;orthogonalLoop=1;jettySize=auto;html=1;exitX=1;exitY=0.5;exitDx=0;exitDy=0;entryX=0;entryY=0.5;entryDx=0;entryDy=0;" edge="1" parent="1" source="ExRPVJ6VkvOgUD8HxoQR-11" target="ExRPVJ6VkvOgUD8HxoQR-15">
          <mxGeometry relative="1" as="geometry" />
        </mxCell>
        <mxCell id="ExRPVJ6VkvOgUD8HxoQR-11" value="User clicks on video" style="rounded=1;whiteSpace=wrap;html=1;" vertex="1" parent="1">
          <mxGeometry x="-280" y="80" width="120" height="30" as="geometry" />
        </mxCell>
        <mxCell id="ExRPVJ6VkvOgUD8HxoQR-12" style="edgeStyle=orthogonalEdgeStyle;rounded=0;orthogonalLoop=1;jettySize=auto;html=1;exitX=1;exitY=0.5;exitDx=0;exitDy=0;entryX=0;entryY=0.5;entryDx=0;entryDy=0;" edge="1" parent="1" source="ExRPVJ6VkvOgUD8HxoQR-15" target="ExRPVJ6VkvOgUD8HxoQR-17">
          <mxGeometry relative="1" as="geometry" />
        </mxCell>
        <mxCell id="ExRPVJ6VkvOgUD8HxoQR-13" style="edgeStyle=orthogonalEdgeStyle;rounded=0;orthogonalLoop=1;jettySize=auto;html=1;exitX=1;exitY=0.5;exitDx=0;exitDy=0;entryX=0;entryY=0.5;entryDx=0;entryDy=0;" edge="1" parent="1" source="ExRPVJ6VkvOgUD8HxoQR-15" target="ExRPVJ6VkvOgUD8HxoQR-19">
          <mxGeometry relative="1" as="geometry" />
        </mxCell>
        <mxCell id="ExRPVJ6VkvOgUD8HxoQR-14" style="edgeStyle=orthogonalEdgeStyle;rounded=0;orthogonalLoop=1;jettySize=auto;html=1;exitX=0.5;exitY=1;exitDx=0;exitDy=0;" edge="1" parent="1" source="ExRPVJ6VkvOgUD8HxoQR-15" target="ExRPVJ6VkvOgUD8HxoQR-43">
          <mxGeometry relative="1" as="geometry" />
        </mxCell>
        <mxCell id="ExRPVJ6VkvOgUD8HxoQR-15" value="Video page appears" style="rounded=1;whiteSpace=wrap;html=1;" vertex="1" parent="1">
          <mxGeometry x="-80" y="80" width="120" height="30" as="geometry" />
        </mxCell>
        <mxCell id="ExRPVJ6VkvOgUD8HxoQR-16" style="edgeStyle=orthogonalEdgeStyle;rounded=0;orthogonalLoop=1;jettySize=auto;html=1;exitX=1;exitY=0.5;exitDx=0;exitDy=0;entryX=0;entryY=0.5;entryDx=0;entryDy=0;" edge="1" parent="1" source="ExRPVJ6VkvOgUD8HxoQR-17" target="ExRPVJ6VkvOgUD8HxoQR-4">
          <mxGeometry relative="1" as="geometry" />
        </mxCell>
        <mxCell id="ExRPVJ6VkvOgUD8HxoQR-17" value="Auto-start" style="rounded=1;whiteSpace=wrap;html=1;" vertex="1" parent="1">
          <mxGeometry x="120" y="40" width="120" height="30" as="geometry" />
        </mxCell>
        <mxCell id="ExRPVJ6VkvOgUD8HxoQR-18" style="edgeStyle=orthogonalEdgeStyle;rounded=0;orthogonalLoop=1;jettySize=auto;html=1;exitX=1;exitY=0.5;exitDx=0;exitDy=0;entryX=0;entryY=0.5;entryDx=0;entryDy=0;" edge="1" parent="1" source="ExRPVJ6VkvOgUD8HxoQR-19" target="ExRPVJ6VkvOgUD8HxoQR-4">
          <mxGeometry relative="1" as="geometry" />
        </mxCell>
        <mxCell id="ExRPVJ6VkvOgUD8HxoQR-19" value="User clicks play" style="rounded=1;whiteSpace=wrap;html=1;" vertex="1" parent="1">
          <mxGeometry x="120" y="120" width="120" height="30" as="geometry" />
        </mxCell>
        <mxCell id="ExRPVJ6VkvOgUD8HxoQR-20" value="&lt;h1 style=&quot;margin-top: 0px;&quot;&gt;Start&lt;/h1&gt;&lt;p&gt;What does trigger the video play.&lt;/p&gt;&lt;p&gt;1- The user clicks on play ?&lt;/p&gt;&lt;p&gt;2- The video auto-starts&lt;/p&gt;" style="text;html=1;whiteSpace=wrap;overflow=hidden;rounded=0;fillColor=#dae8fc;strokeColor=#6c8ebf;spacing=10;" vertex="1" parent="1">
          <mxGeometry x="110" y="-200" width="250" height="200" as="geometry" />
        </mxCell>
        <mxCell id="ExRPVJ6VkvOgUD8HxoQR-21" style="edgeStyle=orthogonalEdgeStyle;rounded=0;orthogonalLoop=1;jettySize=auto;html=1;exitX=1;exitY=0.5;exitDx=0;exitDy=0;entryX=0;entryY=0.5;entryDx=0;entryDy=0;" edge="1" parent="1" source="ExRPVJ6VkvOgUD8HxoQR-22" target="ExRPVJ6VkvOgUD8HxoQR-2">
          <mxGeometry relative="1" as="geometry" />
        </mxCell>
        <mxCell id="ExRPVJ6VkvOgUD8HxoQR-22" value="Countdown fades" style="rounded=1;whiteSpace=wrap;html=1;" vertex="1" parent="1">
          <mxGeometry x="520" y="80" width="120" height="30" as="geometry" />
        </mxCell>
        <mxCell id="ExRPVJ6VkvOgUD8HxoQR-23" style="edgeStyle=orthogonalEdgeStyle;rounded=0;orthogonalLoop=1;jettySize=auto;html=1;exitX=1;exitY=0.5;exitDx=0;exitDy=0;entryX=0;entryY=0.5;entryDx=0;entryDy=0;" edge="1" parent="1" source="ExRPVJ6VkvOgUD8HxoQR-24" target="ExRPVJ6VkvOgUD8HxoQR-26">
          <mxGeometry relative="1" as="geometry" />
        </mxCell>
        <mxCell id="ExRPVJ6VkvOgUD8HxoQR-24" value="Video section starts" style="rounded=1;whiteSpace=wrap;html=1;" vertex="1" parent="1">
          <mxGeometry x="1120" y="160" width="120" height="30" as="geometry" />
        </mxCell>
        <mxCell id="ExRPVJ6VkvOgUD8HxoQR-25" style="edgeStyle=orthogonalEdgeStyle;rounded=0;orthogonalLoop=1;jettySize=auto;html=1;exitX=0.5;exitY=0;exitDx=0;exitDy=0;entryX=0.5;entryY=1;entryDx=0;entryDy=0;" edge="1" parent="1" source="ExRPVJ6VkvOgUD8HxoQR-26" target="ExRPVJ6VkvOgUD8HxoQR-30">
          <mxGeometry relative="1" as="geometry" />
        </mxCell>
        <mxCell id="ExRPVJ6VkvOgUD8HxoQR-26" value="Video section ends" style="rounded=1;whiteSpace=wrap;html=1;" vertex="1" parent="1">
          <mxGeometry x="1320" y="160" width="120" height="30" as="geometry" />
        </mxCell>
        <mxCell id="ExRPVJ6VkvOgUD8HxoQR-27" value="&lt;h1 style=&quot;margin-top: 0px;&quot;&gt;Cut&lt;/h1&gt;&lt;p&gt;How are video sections cut and merges together ?&lt;/p&gt;" style="text;html=1;whiteSpace=wrap;overflow=hidden;rounded=0;fillColor=#dae8fc;strokeColor=#6c8ebf;spacingBottom=10;spacingRight=10;spacingLeft=10;spacingTop=3;spacing=10;" vertex="1" parent="1">
          <mxGeometry x="950" y="-200" width="250" height="200" as="geometry" />
        </mxCell>
        <mxCell id="ExRPVJ6VkvOgUD8HxoQR-28" style="edgeStyle=orthogonalEdgeStyle;rounded=0;orthogonalLoop=1;jettySize=auto;html=1;exitX=1;exitY=0.5;exitDx=0;exitDy=0;entryX=0;entryY=0.5;entryDx=0;entryDy=0;" edge="1" parent="1" source="ExRPVJ6VkvOgUD8HxoQR-30" target="ExRPVJ6VkvOgUD8HxoQR-54">
          <mxGeometry relative="1" as="geometry" />
        </mxCell>
        <mxCell id="ExRPVJ6VkvOgUD8HxoQR-29" style="edgeStyle=orthogonalEdgeStyle;rounded=0;orthogonalLoop=1;jettySize=auto;html=1;exitX=1;exitY=0.5;exitDx=0;exitDy=0;entryX=0;entryY=0.5;entryDx=0;entryDy=0;" edge="1" parent="1" source="ExRPVJ6VkvOgUD8HxoQR-30" target="ExRPVJ6VkvOgUD8HxoQR-56">
          <mxGeometry relative="1" as="geometry" />
        </mxCell>
        <mxCell id="ExRPVJ6VkvOgUD8HxoQR-30" value="Video ends" style="rounded=1;whiteSpace=wrap;html=1;" vertex="1" parent="1">
          <mxGeometry x="1320" y="80" width="120" height="30" as="geometry" />
        </mxCell>
        <mxCell id="ExRPVJ6VkvOgUD8HxoQR-31" style="edgeStyle=orthogonalEdgeStyle;rounded=0;orthogonalLoop=1;jettySize=auto;html=1;exitX=1;exitY=0.5;exitDx=0;exitDy=0;entryX=0;entryY=0.5;entryDx=0;entryDy=0;" edge="1" parent="1" source="ExRPVJ6VkvOgUD8HxoQR-43" target="ExRPVJ6VkvOgUD8HxoQR-44">
          <mxGeometry relative="1" as="geometry" />
        </mxCell>
        <mxCell id="ExRPVJ6VkvOgUD8HxoQR-32" style="edgeStyle=orthogonalEdgeStyle;rounded=0;orthogonalLoop=1;jettySize=auto;html=1;exitX=1;exitY=0.5;exitDx=0;exitDy=0;entryX=0;entryY=0.5;entryDx=0;entryDy=0;" edge="1" parent="1" source="ExRPVJ6VkvOgUD8HxoQR-43" target="ExRPVJ6VkvOgUD8HxoQR-45">
          <mxGeometry relative="1" as="geometry" />
        </mxCell>
        <mxCell id="ExRPVJ6VkvOgUD8HxoQR-33" style="edgeStyle=orthogonalEdgeStyle;rounded=0;orthogonalLoop=1;jettySize=auto;html=1;exitX=1;exitY=0.5;exitDx=0;exitDy=0;entryX=0;entryY=0.5;entryDx=0;entryDy=0;" edge="1" parent="1" source="ExRPVJ6VkvOgUD8HxoQR-43" target="ExRPVJ6VkvOgUD8HxoQR-46">
          <mxGeometry relative="1" as="geometry" />
        </mxCell>
        <mxCell id="ExRPVJ6VkvOgUD8HxoQR-34" style="edgeStyle=orthogonalEdgeStyle;rounded=0;orthogonalLoop=1;jettySize=auto;html=1;exitX=1;exitY=0.5;exitDx=0;exitDy=0;entryX=0;entryY=0.5;entryDx=0;entryDy=0;" edge="1" parent="1" source="ExRPVJ6VkvOgUD8HxoQR-43" target="ExRPVJ6VkvOgUD8HxoQR-47">
          <mxGeometry relative="1" as="geometry" />
        </mxCell>
        <mxCell id="ExRPVJ6VkvOgUD8HxoQR-35" style="edgeStyle=orthogonalEdgeStyle;rounded=0;orthogonalLoop=1;jettySize=auto;html=1;exitX=1;exitY=0.5;exitDx=0;exitDy=0;entryX=0;entryY=0.5;entryDx=0;entryDy=0;" edge="1" parent="1" source="ExRPVJ6VkvOgUD8HxoQR-43" target="ExRPVJ6VkvOgUD8HxoQR-48">
          <mxGeometry relative="1" as="geometry" />
        </mxCell>
        <mxCell id="ExRPVJ6VkvOgUD8HxoQR-36" style="edgeStyle=orthogonalEdgeStyle;rounded=0;orthogonalLoop=1;jettySize=auto;html=1;exitX=1;exitY=0.5;exitDx=0;exitDy=0;entryX=0;entryY=0.5;entryDx=0;entryDy=0;" edge="1" parent="1" source="ExRPVJ6VkvOgUD8HxoQR-43" target="ExRPVJ6VkvOgUD8HxoQR-49">
          <mxGeometry relative="1" as="geometry" />
        </mxCell>
        <mxCell id="ExRPVJ6VkvOgUD8HxoQR-37" style="edgeStyle=orthogonalEdgeStyle;rounded=0;orthogonalLoop=1;jettySize=auto;html=1;exitX=1;exitY=0.5;exitDx=0;exitDy=0;entryX=0;entryY=0.5;entryDx=0;entryDy=0;" edge="1" parent="1" source="ExRPVJ6VkvOgUD8HxoQR-43" target="ExRPVJ6VkvOgUD8HxoQR-50">
          <mxGeometry relative="1" as="geometry" />
        </mxCell>
        <mxCell id="ExRPVJ6VkvOgUD8HxoQR-38" style="edgeStyle=orthogonalEdgeStyle;rounded=0;orthogonalLoop=1;jettySize=auto;html=1;exitX=1;exitY=0.5;exitDx=0;exitDy=0;entryX=0;entryY=0.5;entryDx=0;entryDy=0;" edge="1" parent="1" source="ExRPVJ6VkvOgUD8HxoQR-43" target="ExRPVJ6VkvOgUD8HxoQR-51">
          <mxGeometry relative="1" as="geometry" />
        </mxCell>
        <mxCell id="ExRPVJ6VkvOgUD8HxoQR-39" style="edgeStyle=orthogonalEdgeStyle;rounded=0;orthogonalLoop=1;jettySize=auto;html=1;exitX=1;exitY=0.5;exitDx=0;exitDy=0;entryX=0;entryY=0.5;entryDx=0;entryDy=0;" edge="1" parent="1" source="ExRPVJ6VkvOgUD8HxoQR-43" target="ExRPVJ6VkvOgUD8HxoQR-69">
          <mxGeometry relative="1" as="geometry" />
        </mxCell>
        <mxCell id="ExRPVJ6VkvOgUD8HxoQR-40" style="edgeStyle=orthogonalEdgeStyle;rounded=0;orthogonalLoop=1;jettySize=auto;html=1;exitX=1;exitY=0.5;exitDx=0;exitDy=0;entryX=0;entryY=0.5;entryDx=0;entryDy=0;" edge="1" parent="1" source="ExRPVJ6VkvOgUD8HxoQR-43" target="ExRPVJ6VkvOgUD8HxoQR-72">
          <mxGeometry relative="1" as="geometry" />
        </mxCell>
        <mxCell id="ExRPVJ6VkvOgUD8HxoQR-41" style="edgeStyle=orthogonalEdgeStyle;rounded=0;orthogonalLoop=1;jettySize=auto;html=1;exitX=1;exitY=0.5;exitDx=0;exitDy=0;entryX=0;entryY=0.5;entryDx=0;entryDy=0;" edge="1" parent="1" source="ExRPVJ6VkvOgUD8HxoQR-43" target="ExRPVJ6VkvOgUD8HxoQR-75">
          <mxGeometry relative="1" as="geometry" />
        </mxCell>
        <mxCell id="ExRPVJ6VkvOgUD8HxoQR-42" style="edgeStyle=orthogonalEdgeStyle;rounded=0;orthogonalLoop=1;jettySize=auto;html=1;exitX=1;exitY=0.5;exitDx=0;exitDy=0;entryX=0;entryY=0.5;entryDx=0;entryDy=0;" edge="1" parent="1" source="ExRPVJ6VkvOgUD8HxoQR-43" target="ExRPVJ6VkvOgUD8HxoQR-76">
          <mxGeometry relative="1" as="geometry" />
        </mxCell>
        <mxCell id="ExRPVJ6VkvOgUD8HxoQR-43" value="User options" style="rounded=1;whiteSpace=wrap;html=1;" vertex="1" parent="1">
          <mxGeometry x="-80" y="240" width="120" height="30" as="geometry" />
        </mxCell>
        <mxCell id="ExRPVJ6VkvOgUD8HxoQR-44" value="Play" style="rounded=1;whiteSpace=wrap;html=1;" vertex="1" parent="1">
          <mxGeometry x="120" y="280" width="120" height="30" as="geometry" />
        </mxCell>
        <mxCell id="ExRPVJ6VkvOgUD8HxoQR-45" value="Pause" style="rounded=1;whiteSpace=wrap;html=1;" vertex="1" parent="1">
          <mxGeometry x="120" y="320" width="120" height="30" as="geometry" />
        </mxCell>
        <mxCell id="ExRPVJ6VkvOgUD8HxoQR-46" value="Restart" style="rounded=1;whiteSpace=wrap;html=1;" vertex="1" parent="1">
          <mxGeometry x="120" y="360" width="120" height="30" as="geometry" />
        </mxCell>
        <mxCell id="ExRPVJ6VkvOgUD8HxoQR-47" value="Stop" style="rounded=1;whiteSpace=wrap;html=1;" vertex="1" parent="1">
          <mxGeometry x="120" y="400" width="120" height="30" as="geometry" />
        </mxCell>
        <mxCell id="ExRPVJ6VkvOgUD8HxoQR-48" value="15s travel (b/f)" style="rounded=1;whiteSpace=wrap;html=1;" vertex="1" parent="1">
          <mxGeometry x="120" y="440" width="120" height="30" as="geometry" />
        </mxCell>
        <mxCell id="ExRPVJ6VkvOgUD8HxoQR-49" value="Go back" style="rounded=1;whiteSpace=wrap;html=1;" vertex="1" parent="1">
          <mxGeometry x="120" y="240" width="120" height="30" as="geometry" />
        </mxCell>
        <mxCell id="ExRPVJ6VkvOgUD8HxoQR-50" value="Full screen" style="rounded=1;whiteSpace=wrap;html=1;" vertex="1" parent="1">
          <mxGeometry x="120" y="480" width="120" height="30" as="geometry" />
        </mxCell>
        <mxCell id="ExRPVJ6VkvOgUD8HxoQR-51" value="Resize" style="rounded=1;whiteSpace=wrap;html=1;" vertex="1" parent="1">
          <mxGeometry x="120" y="520" width="120" height="30" as="geometry" />
        </mxCell>
        <mxCell id="ExRPVJ6VkvOgUD8HxoQR-52" value="Set speed" style="rounded=1;whiteSpace=wrap;html=1;" vertex="1" parent="1">
          <mxGeometry x="320" y="640" width="120" height="30" as="geometry" />
        </mxCell>
        <mxCell id="ExRPVJ6VkvOgUD8HxoQR-53" style="edgeStyle=orthogonalEdgeStyle;rounded=0;orthogonalLoop=1;jettySize=auto;html=1;exitX=1;exitY=0.5;exitDx=0;exitDy=0;entryX=0;entryY=0.5;entryDx=0;entryDy=0;" edge="1" parent="1" source="ExRPVJ6VkvOgUD8HxoQR-54" target="ExRPVJ6VkvOgUD8HxoQR-57">
          <mxGeometry relative="1" as="geometry" />
        </mxCell>
        <mxCell id="ExRPVJ6VkvOgUD8HxoQR-54" value="Auto-quit" style="rounded=1;whiteSpace=wrap;html=1;" vertex="1" parent="1">
          <mxGeometry x="1520" y="40" width="120" height="30" as="geometry" />
        </mxCell>
        <mxCell id="ExRPVJ6VkvOgUD8HxoQR-55" style="edgeStyle=orthogonalEdgeStyle;rounded=0;orthogonalLoop=1;jettySize=auto;html=1;exitX=1;exitY=0.5;exitDx=0;exitDy=0;entryX=0;entryY=0.5;entryDx=0;entryDy=0;" edge="1" parent="1" source="ExRPVJ6VkvOgUD8HxoQR-56" target="ExRPVJ6VkvOgUD8HxoQR-57">
          <mxGeometry relative="1" as="geometry" />
        </mxCell>
        <mxCell id="ExRPVJ6VkvOgUD8HxoQR-56" value="User clicks to quit" style="rounded=1;whiteSpace=wrap;html=1;" vertex="1" parent="1">
          <mxGeometry x="1520" y="120" width="120" height="30" as="geometry" />
        </mxCell>
        <mxCell id="ExRPVJ6VkvOgUD8HxoQR-57" value="User dashboard" style="rounded=1;whiteSpace=wrap;html=1;" vertex="1" parent="1">
          <mxGeometry x="1720" y="80" width="120" height="30" as="geometry" />
        </mxCell>
        <mxCell id="ExRPVJ6VkvOgUD8HxoQR-58" value="&lt;h1 style=&quot;margin-top: 0px;&quot;&gt;End&lt;/h1&gt;&lt;p&gt;How does it end ?&lt;/p&gt;&lt;p&gt;Is there some feedback input ?&lt;/p&gt;&lt;p&gt;Does the user has to click to quit ?&lt;/p&gt;&lt;p&gt;Does it auto-quit ?&lt;/p&gt;" style="text;html=1;whiteSpace=wrap;overflow=hidden;rounded=0;fillColor=#dae8fc;strokeColor=#6c8ebf;spacingBottom=10;spacingRight=10;spacingLeft=10;spacingTop=3;spacing=10;" vertex="1" parent="1">
          <mxGeometry x="1455" y="-200" width="250" height="200" as="geometry" />
        </mxCell>
        <mxCell id="ExRPVJ6VkvOgUD8HxoQR-59" value="Main Video Flow" style="text;html=1;align=left;verticalAlign=top;whiteSpace=wrap;rounded=0;fontSize=24;" vertex="1" parent="1">
          <mxGeometry x="-280" y="-80" width="80" height="100" as="geometry" />
        </mxCell>
        <mxCell id="ExRPVJ6VkvOgUD8HxoQR-60" value="Video Section Flow" style="text;html=1;align=left;verticalAlign=top;whiteSpace=wrap;rounded=0;fontSize=24;" vertex="1" parent="1">
          <mxGeometry x="-280" y="800" width="80" height="100" as="geometry" />
        </mxCell>
        <mxCell id="ExRPVJ6VkvOgUD8HxoQR-61" style="edgeStyle=orthogonalEdgeStyle;rounded=0;orthogonalLoop=1;jettySize=auto;html=1;exitX=1;exitY=0.5;exitDx=0;exitDy=0;entryX=0;entryY=0.5;entryDx=0;entryDy=0;" edge="1" parent="1" source="ExRPVJ6VkvOgUD8HxoQR-62" target="ExRPVJ6VkvOgUD8HxoQR-65">
          <mxGeometry relative="1" as="geometry" />
        </mxCell>
        <mxCell id="ExRPVJ6VkvOgUD8HxoQR-62" value="Video section starts" style="rounded=1;whiteSpace=wrap;html=1;" vertex="1" parent="1">
          <mxGeometry x="-280" y="920" width="120" height="30" as="geometry" />
        </mxCell>
        <mxCell id="ExRPVJ6VkvOgUD8HxoQR-63" style="edgeStyle=orthogonalEdgeStyle;rounded=0;orthogonalLoop=1;jettySize=auto;html=1;exitX=0.5;exitY=1;exitDx=0;exitDy=0;entryX=0.5;entryY=0;entryDx=0;entryDy=0;" edge="1" parent="1" source="ExRPVJ6VkvOgUD8HxoQR-65" target="ExRPVJ6VkvOgUD8HxoQR-68">
          <mxGeometry relative="1" as="geometry" />
        </mxCell>
        <mxCell id="ExRPVJ6VkvOgUD8HxoQR-64" style="edgeStyle=orthogonalEdgeStyle;rounded=0;orthogonalLoop=1;jettySize=auto;html=1;exitX=1;exitY=0.5;exitDx=0;exitDy=0;entryX=0;entryY=0.5;entryDx=0;entryDy=0;" edge="1" parent="1" source="ExRPVJ6VkvOgUD8HxoQR-65" target="ExRPVJ6VkvOgUD8HxoQR-67">
          <mxGeometry relative="1" as="geometry" />
        </mxCell>
        <mxCell id="ExRPVJ6VkvOgUD8HxoQR-65" value="Exo. explanation" style="rounded=1;whiteSpace=wrap;html=1;" vertex="1" parent="1">
          <mxGeometry x="-80" y="920" width="120" height="30" as="geometry" />
        </mxCell>
        <mxCell id="ExRPVJ6VkvOgUD8HxoQR-66" style="edgeStyle=orthogonalEdgeStyle;rounded=0;orthogonalLoop=1;jettySize=auto;html=1;exitX=1;exitY=0.5;exitDx=0;exitDy=0;entryX=0;entryY=0.5;entryDx=0;entryDy=0;" edge="1" parent="1" source="ExRPVJ6VkvOgUD8HxoQR-67" target="ExRPVJ6VkvOgUD8HxoQR-80">
          <mxGeometry relative="1" as="geometry" />
        </mxCell>
        <mxCell id="ExRPVJ6VkvOgUD8HxoQR-67" value="Exo. repetition" style="rounded=1;whiteSpace=wrap;html=1;" vertex="1" parent="1">
          <mxGeometry x="120" y="920" width="120" height="30" as="geometry" />
        </mxCell>
        <mxCell id="ExRPVJ6VkvOgUD8HxoQR-68" value="Voice-over" style="rounded=1;whiteSpace=wrap;html=1;" vertex="1" parent="1">
          <mxGeometry x="-80" y="1000" width="120" height="30" as="geometry" />
        </mxCell>
        <mxCell id="ExRPVJ6VkvOgUD8HxoQR-69" value="Section travel (b/f)" style="rounded=1;whiteSpace=wrap;html=1;" vertex="1" parent="1">
          <mxGeometry x="120" y="560" width="120" height="30" as="geometry" />
        </mxCell>
        <mxCell id="ExRPVJ6VkvOgUD8HxoQR-70" style="edgeStyle=orthogonalEdgeStyle;rounded=0;orthogonalLoop=1;jettySize=auto;html=1;exitX=1;exitY=0.5;exitDx=0;exitDy=0;entryX=0;entryY=0.5;entryDx=0;entryDy=0;" edge="1" parent="1" source="ExRPVJ6VkvOgUD8HxoQR-72" target="ExRPVJ6VkvOgUD8HxoQR-52">
          <mxGeometry relative="1" as="geometry" />
        </mxCell>
        <mxCell id="ExRPVJ6VkvOgUD8HxoQR-71" style="edgeStyle=orthogonalEdgeStyle;rounded=0;orthogonalLoop=1;jettySize=auto;html=1;exitX=1;exitY=0.5;exitDx=0;exitDy=0;entryX=0;entryY=0.5;entryDx=0;entryDy=0;" edge="1" parent="1" source="ExRPVJ6VkvOgUD8HxoQR-72" target="ExRPVJ6VkvOgUD8HxoQR-78">
          <mxGeometry relative="1" as="geometry" />
        </mxCell>
        <mxCell id="ExRPVJ6VkvOgUD8HxoQR-72" value="Settings" style="rounded=1;whiteSpace=wrap;html=1;" vertex="1" parent="1">
          <mxGeometry x="120" y="640" width="120" height="30" as="geometry" />
        </mxCell>
        <mxCell id="ExRPVJ6VkvOgUD8HxoQR-73" value="Section selection" style="rounded=1;whiteSpace=wrap;html=1;" vertex="1" parent="1">
          <mxGeometry x="320" y="720" width="120" height="30" as="geometry" />
        </mxCell>
        <mxCell id="ExRPVJ6VkvOgUD8HxoQR-74" style="edgeStyle=orthogonalEdgeStyle;rounded=0;orthogonalLoop=1;jettySize=auto;html=1;exitX=1;exitY=0.5;exitDx=0;exitDy=0;entryX=0;entryY=0.5;entryDx=0;entryDy=0;" edge="1" parent="1" source="ExRPVJ6VkvOgUD8HxoQR-75" target="ExRPVJ6VkvOgUD8HxoQR-73">
          <mxGeometry relative="1" as="geometry" />
        </mxCell>
        <mxCell id="ExRPVJ6VkvOgUD8HxoQR-75" value="Menu" style="rounded=1;whiteSpace=wrap;html=1;" vertex="1" parent="1">
          <mxGeometry x="120" y="720" width="120" height="30" as="geometry" />
        </mxCell>
        <mxCell id="ExRPVJ6VkvOgUD8HxoQR-76" value="Volume control" style="rounded=1;whiteSpace=wrap;html=1;" vertex="1" parent="1">
          <mxGeometry x="120" y="600" width="120" height="30" as="geometry" />
        </mxCell>
        <mxCell id="ExRPVJ6VkvOgUD8HxoQR-77" style="edgeStyle=orthogonalEdgeStyle;rounded=0;orthogonalLoop=1;jettySize=auto;html=1;exitX=1;exitY=0.5;exitDx=0;exitDy=0;entryX=0.5;entryY=0;entryDx=0;entryDy=0;dashed=1;" edge="1" parent="1" source="ExRPVJ6VkvOgUD8HxoQR-78" target="ExRPVJ6VkvOgUD8HxoQR-84">
          <mxGeometry relative="1" as="geometry" />
        </mxCell>
        <mxCell id="ExRPVJ6VkvOgUD8HxoQR-78" value="Set cut delay" style="rounded=1;whiteSpace=wrap;html=1;" vertex="1" parent="1">
          <mxGeometry x="320" y="680" width="120" height="30" as="geometry" />
        </mxCell>
        <mxCell id="ExRPVJ6VkvOgUD8HxoQR-79" style="edgeStyle=orthogonalEdgeStyle;rounded=0;orthogonalLoop=1;jettySize=auto;html=1;exitX=1;exitY=0.5;exitDx=0;exitDy=0;entryX=0;entryY=0.5;entryDx=0;entryDy=0;" edge="1" parent="1" source="ExRPVJ6VkvOgUD8HxoQR-80" target="ExRPVJ6VkvOgUD8HxoQR-82">
          <mxGeometry relative="1" as="geometry" />
        </mxCell>
        <mxCell id="ExRPVJ6VkvOgUD8HxoQR-80" value="?" style="rounded=1;whiteSpace=wrap;html=1;" vertex="1" parent="1">
          <mxGeometry x="320" y="920" width="120" height="30" as="geometry" />
        </mxCell>
        <mxCell id="ExRPVJ6VkvOgUD8HxoQR-81" style="edgeStyle=orthogonalEdgeStyle;rounded=0;orthogonalLoop=1;jettySize=auto;html=1;exitX=1;exitY=0.5;exitDx=0;exitDy=0;entryX=0;entryY=0.5;entryDx=0;entryDy=0;" edge="1" parent="1" source="ExRPVJ6VkvOgUD8HxoQR-82" target="ExRPVJ6VkvOgUD8HxoQR-84">
          <mxGeometry relative="1" as="geometry" />
        </mxCell>
        <mxCell id="ExRPVJ6VkvOgUD8HxoQR-82" value="Video section ends" style="rounded=1;whiteSpace=wrap;html=1;" vertex="1" parent="1">
          <mxGeometry x="520" y="920" width="120" height="30" as="geometry" />
        </mxCell>
        <mxCell id="ExRPVJ6VkvOgUD8HxoQR-83" style="edgeStyle=orthogonalEdgeStyle;rounded=0;orthogonalLoop=1;jettySize=auto;html=1;exitX=1;exitY=0.5;exitDx=0;exitDy=0;entryX=0;entryY=0.5;entryDx=0;entryDy=0;" edge="1" parent="1" source="ExRPVJ6VkvOgUD8HxoQR-84" target="ExRPVJ6VkvOgUD8HxoQR-85">
          <mxGeometry relative="1" as="geometry" />
        </mxCell>
        <mxCell id="ExRPVJ6VkvOgUD8HxoQR-84" value="Delay" style="rounded=1;whiteSpace=wrap;html=1;" vertex="1" parent="1">
          <mxGeometry x="720" y="920" width="120" height="30" as="geometry" />
        </mxCell>
        <mxCell id="ExRPVJ6VkvOgUD8HxoQR-85" value="Next video section" style="rounded=1;whiteSpace=wrap;html=1;" vertex="1" parent="1">
          <mxGeometry x="920" y="920" width="120" height="30" as="geometry" />
        </mxCell>
        <mxCell id="ExRPVJ6VkvOgUD8HxoQR-86" value="Video Interface&amp;nbsp;&lt;div&gt;Flow&lt;/div&gt;" style="text;html=1;align=left;verticalAlign=top;whiteSpace=wrap;rounded=0;fontSize=24;" vertex="1" parent="1">
          <mxGeometry x="-280" y="1200" width="80" height="100" as="geometry" />
        </mxCell>
        <mxCell id="ExRPVJ6VkvOgUD8HxoQR-87" value="Camera" style="rounded=1;whiteSpace=wrap;html=1;fillColor=#f8cecc;strokeColor=#b85450;" vertex="1" parent="1">
          <mxGeometry x="-280" y="1360" width="120" height="30" as="geometry" />
        </mxCell>
        <mxCell id="ExRPVJ6VkvOgUD8HxoQR-88" value="Audio recorder" style="rounded=1;whiteSpace=wrap;html=1;fillColor=#e1d5e7;strokeColor=#9673a6;" vertex="1" parent="1">
          <mxGeometry x="-280" y="1440" width="120" height="30" as="geometry" />
        </mxCell>
        <mxCell id="ExRPVJ6VkvOgUD8HxoQR-89" value="App" style="rounded=1;whiteSpace=wrap;html=1;fillColor=#d5e8d4;strokeColor=#82b366;" vertex="1" parent="1">
          <mxGeometry x="-280" y="1520" width="120" height="30" as="geometry" />
        </mxCell>
        <mxCell id="ExRPVJ6VkvOgUD8HxoQR-90" style="edgeStyle=orthogonalEdgeStyle;rounded=0;orthogonalLoop=1;jettySize=auto;html=1;exitX=1;exitY=0.5;exitDx=0;exitDy=0;entryX=0;entryY=0.5;entryDx=0;entryDy=0;" edge="1" parent="1" source="ExRPVJ6VkvOgUD8HxoQR-91" target="ExRPVJ6VkvOgUD8HxoQR-96">
          <mxGeometry relative="1" as="geometry" />
        </mxCell>
        <mxCell id="ExRPVJ6VkvOgUD8HxoQR-91" value="" style="swimlane;startSize=0;gradientColor=none;fillColor=#E6E6E6;" vertex="1" parent="1">
          <mxGeometry x="280" y="1360" width="200" height="240" as="geometry" />
        </mxCell>
        <mxCell id="ExRPVJ6VkvOgUD8HxoQR-92" value="Menu" style="rounded=0;whiteSpace=wrap;html=1;fillColor=#d5e8d4;strokeColor=#82b366;" vertex="1" parent="ExRPVJ6VkvOgUD8HxoQR-91">
          <mxGeometry x="10" y="6" width="90" height="28" as="geometry" />
        </mxCell>
        <mxCell id="ExRPVJ6VkvOgUD8HxoQR-93" value="Settings" style="rounded=0;whiteSpace=wrap;html=1;fillColor=#d5e8d4;strokeColor=#82b366;" vertex="1" parent="ExRPVJ6VkvOgUD8HxoQR-91">
          <mxGeometry x="110" y="6" width="80" height="28" as="geometry" />
        </mxCell>
        <mxCell id="ExRPVJ6VkvOgUD8HxoQR-94" value="Countdown" style="whiteSpace=wrap;html=1;fillColor=#d5e8d4;strokeColor=#82b366;" vertex="1" parent="ExRPVJ6VkvOgUD8HxoQR-91">
          <mxGeometry x="10" y="40" width="180" height="190" as="geometry" />
        </mxCell>
        <mxCell id="ExRPVJ6VkvOgUD8HxoQR-95" style="edgeStyle=orthogonalEdgeStyle;rounded=0;orthogonalLoop=1;jettySize=auto;html=1;exitX=1;exitY=0.5;exitDx=0;exitDy=0;entryX=0;entryY=0.5;entryDx=0;entryDy=0;" edge="1" parent="1" source="ExRPVJ6VkvOgUD8HxoQR-96" target="ExRPVJ6VkvOgUD8HxoQR-101">
          <mxGeometry relative="1" as="geometry" />
        </mxCell>
        <mxCell id="ExRPVJ6VkvOgUD8HxoQR-96" value="" style="swimlane;startSize=0;gradientColor=none;fillColor=#E6E6E6;" vertex="1" parent="1">
          <mxGeometry x="560" y="1360" width="200" height="240" as="geometry" />
        </mxCell>
        <mxCell id="ExRPVJ6VkvOgUD8HxoQR-97" value="Menu" style="rounded=0;whiteSpace=wrap;html=1;fillColor=#d5e8d4;strokeColor=#82b366;" vertex="1" parent="ExRPVJ6VkvOgUD8HxoQR-96">
          <mxGeometry x="10" y="6" width="90" height="28" as="geometry" />
        </mxCell>
        <mxCell id="ExRPVJ6VkvOgUD8HxoQR-98" value="Settings" style="rounded=0;whiteSpace=wrap;html=1;fillColor=#d5e8d4;strokeColor=#82b366;" vertex="1" parent="ExRPVJ6VkvOgUD8HxoQR-96">
          <mxGeometry x="110" y="6" width="80" height="28" as="geometry" />
        </mxCell>
        <mxCell id="ExRPVJ6VkvOgUD8HxoQR-99" value="Video" style="whiteSpace=wrap;html=1;fillColor=#f8cecc;strokeColor=#b85450;" vertex="1" parent="ExRPVJ6VkvOgUD8HxoQR-96">
          <mxGeometry x="10" y="40" width="180" height="150" as="geometry" />
        </mxCell>
        <mxCell id="ExRPVJ6VkvOgUD8HxoQR-100" value="Audio" style="rounded=0;whiteSpace=wrap;html=1;fillColor=#e1d5e7;strokeColor=#9673a6;" vertex="1" parent="ExRPVJ6VkvOgUD8HxoQR-96">
          <mxGeometry x="10" y="200" width="180" height="28" as="geometry" />
        </mxCell>
        <mxCell id="ExRPVJ6VkvOgUD8HxoQR-101" value="" style="swimlane;startSize=0;gradientColor=none;fillColor=#E6E6E6;" vertex="1" parent="1">
          <mxGeometry x="840" y="1360" width="200" height="240" as="geometry" />
        </mxCell>
        <mxCell id="ExRPVJ6VkvOgUD8HxoQR-102" value="Menu" style="rounded=0;whiteSpace=wrap;html=1;fillColor=#d5e8d4;strokeColor=#82b366;" vertex="1" parent="ExRPVJ6VkvOgUD8HxoQR-101">
          <mxGeometry x="10" y="6" width="90" height="28" as="geometry" />
        </mxCell>
        <mxCell id="ExRPVJ6VkvOgUD8HxoQR-103" value="Settings" style="rounded=0;whiteSpace=wrap;html=1;fillColor=#d5e8d4;strokeColor=#82b366;" vertex="1" parent="ExRPVJ6VkvOgUD8HxoQR-101">
          <mxGeometry x="110" y="6" width="80" height="28" as="geometry" />
        </mxCell>
        <mxCell id="ExRPVJ6VkvOgUD8HxoQR-104" value="Cut overlay" style="whiteSpace=wrap;html=1;fillColor=#d5e8d4;strokeColor=#82b366;" vertex="1" parent="ExRPVJ6VkvOgUD8HxoQR-101">
          <mxGeometry x="10" y="40" width="180" height="190" as="geometry" />
        </mxCell>
        <mxCell id="ExRPVJ6VkvOgUD8HxoQR-105" style="edgeStyle=orthogonalEdgeStyle;rounded=0;orthogonalLoop=1;jettySize=auto;html=1;exitX=1;exitY=0.5;exitDx=0;exitDy=0;entryX=0;entryY=0.5;entryDx=0;entryDy=0;" edge="1" parent="1" source="ExRPVJ6VkvOgUD8HxoQR-106" target="ExRPVJ6VkvOgUD8HxoQR-91">
          <mxGeometry relative="1" as="geometry" />
        </mxCell>
        <mxCell id="ExRPVJ6VkvOgUD8HxoQR-106" value="" style="swimlane;startSize=0;gradientColor=none;fillColor=#E6E6E6;" vertex="1" parent="1">
          <mxGeometry y="1360" width="200" height="240" as="geometry" />
        </mxCell>
        <mxCell id="ExRPVJ6VkvOgUD8HxoQR-107" value="Menu" style="rounded=0;whiteSpace=wrap;html=1;fillColor=#d5e8d4;strokeColor=#82b366;" vertex="1" parent="ExRPVJ6VkvOgUD8HxoQR-106">
          <mxGeometry x="10" y="6" width="90" height="28" as="geometry" />
        </mxCell>
        <mxCell id="ExRPVJ6VkvOgUD8HxoQR-108" value="Settings" style="rounded=0;whiteSpace=wrap;html=1;fillColor=#d5e8d4;strokeColor=#82b366;" vertex="1" parent="ExRPVJ6VkvOgUD8HxoQR-106">
          <mxGeometry x="110" y="6" width="80" height="28" as="geometry" />
        </mxCell>
        <mxCell id="ExRPVJ6VkvOgUD8HxoQR-109" value="Start overlay" style="whiteSpace=wrap;html=1;fillColor=#d5e8d4;strokeColor=#82b366;" vertex="1" parent="ExRPVJ6VkvOgUD8HxoQR-106">
          <mxGeometry x="10" y="40" width="180" height="190" as="geometry" />
        </mxCell>
        <mxCell id="ExRPVJ6VkvOgUD8HxoQR-110" style="edgeStyle=orthogonalEdgeStyle;rounded=0;orthogonalLoop=1;jettySize=auto;html=1;exitX=1;exitY=0.5;exitDx=0;exitDy=0;entryX=0;entryY=0.5;entryDx=0;entryDy=0;" edge="1" parent="1" source="ExRPVJ6VkvOgUD8HxoQR-111" target="ExRPVJ6VkvOgUD8HxoQR-116">
          <mxGeometry relative="1" as="geometry" />
        </mxCell>
        <mxCell id="ExRPVJ6VkvOgUD8HxoQR-111" value="" style="swimlane;startSize=0;gradientColor=none;fillColor=#E6E6E6;" vertex="1" parent="1">
          <mxGeometry x="1120" y="1360" width="200" height="240" as="geometry" />
        </mxCell>
        <mxCell id="ExRPVJ6VkvOgUD8HxoQR-112" value="Menu" style="rounded=0;whiteSpace=wrap;html=1;fillColor=#d5e8d4;strokeColor=#82b366;" vertex="1" parent="ExRPVJ6VkvOgUD8HxoQR-111">
          <mxGeometry x="10" y="6" width="90" height="28" as="geometry" />
        </mxCell>
        <mxCell id="ExRPVJ6VkvOgUD8HxoQR-113" value="Settings" style="rounded=0;whiteSpace=wrap;html=1;fillColor=#d5e8d4;strokeColor=#82b366;" vertex="1" parent="ExRPVJ6VkvOgUD8HxoQR-111">
          <mxGeometry x="110" y="6" width="80" height="28" as="geometry" />
        </mxCell>
        <mxCell id="ExRPVJ6VkvOgUD8HxoQR-114" value="Video" style="whiteSpace=wrap;html=1;fillColor=#f8cecc;strokeColor=#b85450;" vertex="1" parent="ExRPVJ6VkvOgUD8HxoQR-111">
          <mxGeometry x="10" y="40" width="180" height="150" as="geometry" />
        </mxCell>
        <mxCell id="ExRPVJ6VkvOgUD8HxoQR-115" value="Audio" style="rounded=0;whiteSpace=wrap;html=1;fillColor=#e1d5e7;strokeColor=#9673a6;" vertex="1" parent="ExRPVJ6VkvOgUD8HxoQR-111">
          <mxGeometry x="10" y="200" width="180" height="28" as="geometry" />
        </mxCell>
        <mxCell id="ExRPVJ6VkvOgUD8HxoQR-116" value="" style="swimlane;startSize=0;gradientColor=none;fillColor=#E6E6E6;" vertex="1" parent="1">
          <mxGeometry x="1400" y="1360" width="200" height="240" as="geometry" />
        </mxCell>
        <mxCell id="ExRPVJ6VkvOgUD8HxoQR-117" value="Menu" style="rounded=0;whiteSpace=wrap;html=1;fillColor=#d5e8d4;strokeColor=#82b366;" vertex="1" parent="ExRPVJ6VkvOgUD8HxoQR-116">
          <mxGeometry x="10" y="6" width="90" height="28" as="geometry" />
        </mxCell>
        <mxCell id="ExRPVJ6VkvOgUD8HxoQR-118" value="Settings" style="rounded=0;whiteSpace=wrap;html=1;fillColor=#d5e8d4;strokeColor=#82b366;" vertex="1" parent="ExRPVJ6VkvOgUD8HxoQR-116">
          <mxGeometry x="110" y="6" width="80" height="28" as="geometry" />
        </mxCell>
        <mxCell id="ExRPVJ6VkvOgUD8HxoQR-119" value="End overlay" style="whiteSpace=wrap;html=1;fillColor=#d5e8d4;strokeColor=#82b366;" vertex="1" parent="ExRPVJ6VkvOgUD8HxoQR-116">
          <mxGeometry x="10" y="40" width="180" height="190" as="geometry" />
        </mxCell>
        <mxCell id="ExRPVJ6VkvOgUD8HxoQR-120" value="Start" style="text;html=1;align=left;verticalAlign=middle;whiteSpace=wrap;rounded=0;fontSize=20;" vertex="1" parent="1">
          <mxGeometry y="1280" width="200" height="30" as="geometry" />
        </mxCell>
        <mxCell id="ExRPVJ6VkvOgUD8HxoQR-121" value="Countdown" style="text;html=1;align=left;verticalAlign=middle;whiteSpace=wrap;rounded=0;fontSize=20;" vertex="1" parent="1">
          <mxGeometry x="280" y="1280" width="200" height="30" as="geometry" />
        </mxCell>
        <mxCell id="ExRPVJ6VkvOgUD8HxoQR-122" value="Video Section 1" style="text;html=1;align=left;verticalAlign=middle;whiteSpace=wrap;rounded=0;fontSize=20;" vertex="1" parent="1">
          <mxGeometry x="560" y="1280" width="200" height="30" as="geometry" />
        </mxCell>
        <mxCell id="ExRPVJ6VkvOgUD8HxoQR-123" value="Cut" style="text;html=1;align=left;verticalAlign=middle;whiteSpace=wrap;rounded=0;fontSize=20;" vertex="1" parent="1">
          <mxGeometry x="840" y="1280" width="200" height="30" as="geometry" />
        </mxCell>
        <mxCell id="ExRPVJ6VkvOgUD8HxoQR-124" value="Video Section 2" style="text;html=1;align=left;verticalAlign=middle;whiteSpace=wrap;rounded=0;fontSize=20;" vertex="1" parent="1">
          <mxGeometry x="1120" y="1280" width="200" height="30" as="geometry" />
        </mxCell>
        <mxCell id="ExRPVJ6VkvOgUD8HxoQR-125" value="End" style="text;html=1;align=left;verticalAlign=middle;whiteSpace=wrap;rounded=0;fontSize=20;" vertex="1" parent="1">
          <mxGeometry x="1400" y="1280" width="200" height="30" as="geometry" />
        </mxCell>
      </root>
    </mxGraphModel>
  </diagram>
</mxfile>
